# xmcd CD database file
#
# Track frame offsets:
#	150
#	16785
#	31137
#	45287
#	57812
#	76042
#	94040
#	111767
#	128402
#	140535
#	155605
#	169665
#	186635
#	200472
#	216137
#	232705
#	248925
#	268210
#	282197
#	301257
#
# Disc length: 4233 seconds
#
# Revision: 0
# Processed by: cddbd v1.5.1PL0 Copyright (c) Steve Scherf et al.
# Submitted via: CDex 1.51
#
DISCID=02108714
DTITLE=春日八郎、二葉百合子他 - 懐かしのメロディー（わが青春の歌）NO.５
DYEAR=1900
DGENRE=Vocal
TTITLE0=上海の街角で　東海林太郎
TTITLE1=波止場気質　春日八郎
TTITLE2=上海の花売り娘　岡晴夫
TTITLE3=島の船唄　春日八郎
TTITLE4=港シャンソン　岡晴夫
TTITLE5=長崎物語　大月みやこ
TTITLE6=別れ船　春日八郎
TTITLE7=かえり船　春日八郎
TTITLE8=港が見える丘　大月みやこ
TTITLE9=長崎のザボン売り　小畑実
TTITLE10=憧れのハワイ航路　岡晴夫
TTITLE11=連絡船の唄　大月みやこ
TTITLE12=別れの磯千鳥　大月みやこ
TTITLE13=マドロス追分　津村謙
TTITLE14=初めて来た港　二葉百合子
TTITLE15=帰りの港　春日八郎
TTITLE16=小島通いの郵便船　二葉百合子
TTITLE17=あの娘が泣いてる波止場　三橋美智也
TTITLE18=未練の波止場　小高桂子
TTITLE19=足摺岬　春日八郎
EXTD=
EXTT0=
EXTT1=
EXTT2=
EXTT3=
EXTT4=
EXTT5=
EXTT6=
EXTT7=
EXTT8=
EXTT9=
EXTT10=
EXTT11=
EXTT12=
EXTT13=
EXTT14=
EXTT15=
EXTT16=
EXTT17=
EXTT18=
EXTT19=
PLAYORDER=
